# 3ds Max Wavefront OBJ Exporter v0.97b - (c)2007 guruware
# File Created: 08.04.2018 14:20:00

#
# object Cylinder001
#

v  2.7488 0.0000 6.6361
v  1.8598 0.0000 9.3496
v  0.0000 0.0000 7.1829
v  0.0000 0.0000 6.6361
v  7.1829 0.0000 -0.0000
v  9.3496 0.0000 -1.8598
v  9.3496 1.8100 -1.8598
v  7.1829 1.8100 -0.0000
v  6.6361 0.0000 -2.7488
v  6.6361 1.8100 -2.7488
v  7.9262 0.0000 -5.2961
v  7.9262 1.8100 -5.2961
v  5.0791 0.0000 -5.0791
v  5.0791 1.8100 -5.0791
v  5.2961 0.0000 -7.9262
v  5.2961 1.8100 -7.9262
v  2.7488 0.0000 -6.6361
v  2.7488 1.8100 -6.6361
v  1.8598 0.0000 -9.3496
v  1.8598 1.8100 -9.3496
v  0.0000 0.0000 -7.1829
v  0.0000 1.8100 -7.1829
v  -1.8598 0.0000 -9.3496
v  -1.8598 1.8100 -9.3496
v  -2.7488 0.0000 -6.6361
v  -2.7488 1.8100 -6.6361
v  -5.2961 0.0000 -7.9262
v  -5.2961 1.8100 -7.9262
v  -5.0791 0.0000 -5.0791
v  -5.0791 1.8100 -5.0791
v  -7.9262 0.0000 -5.2961
v  -7.9262 1.8100 -5.2961
v  -6.6361 0.0000 -2.7488
v  -6.6361 1.8100 -2.7488
v  -9.3496 0.0000 -1.8598
v  -9.3496 1.8100 -1.8598
v  -7.1829 0.0000 0.0000
v  -7.1829 1.8100 0.0000
v  -9.3496 0.0000 1.8598
v  -9.3496 1.8100 1.8598
v  -6.6361 0.0000 2.7488
v  -6.6361 1.8100 2.7488
v  -7.9262 0.0000 5.2961
v  -7.9262 1.8100 5.2961
v  -5.0791 0.0000 5.0791
v  -5.0791 1.8100 5.0791
v  -5.2961 0.0000 7.9262
v  -5.2961 1.8100 7.9262
v  -2.7488 0.0000 6.6361
v  -2.7488 1.8100 6.6361
v  -1.8598 0.0000 9.3496
v  -1.8598 1.8100 9.3496
v  0.0000 1.8100 7.1829
v  1.8598 1.8100 9.3496
v  2.7488 1.8100 6.6361
v  5.2962 0.0000 7.9262
v  5.2962 1.8100 7.9262
v  5.0791 0.0000 5.0790
v  5.0791 1.8100 5.0790
v  7.9262 0.0000 5.2961
v  7.9262 1.8100 5.2961
v  6.6361 0.0000 2.7488
v  6.6361 1.8100 2.7488
v  9.3496 0.0000 1.8597
v  9.3496 1.8100 1.8597
v  0.0000 1.8100 6.6361
v  0.0000 1.8100 -0.0000
v  4.6924 1.8100 -4.6924
v  0.0000 1.8100 -6.6361
v  -4.6924 1.8100 -4.6924
v  -6.6361 1.8100 0.0000
v  -4.6924 1.8100 4.6924
v  4.6924 1.8100 4.6924
v  6.6361 1.8100 -0.0000
v  0.0000 0.0000 -6.6361
v  -4.6924 0.0000 -4.6924
v  -6.6361 0.0000 0.0000
v  -4.6924 0.0000 4.6924
v  0.0000 0.0000 -0.0000
v  4.6924 0.0000 4.6924
v  6.6361 0.0000 -0.0000
v  4.6924 0.0000 -4.6924
# 82 vertices

vn 0.0000 -1.0000 -0.0000
vn 1.0000 0.0000 -0.0000
vn 0.9808 0.0000 -0.1951
vn 0.9239 0.0000 -0.3827
vn 0.8315 0.0000 -0.5556
vn 0.7071 0.0000 -0.7071
vn 0.5556 0.0000 -0.8315
vn 0.3827 0.0000 -0.9239
vn 0.1951 0.0000 -0.9808
vn 0.0000 0.0000 -1.0000
vn -0.1951 0.0000 -0.9808
vn -0.3827 0.0000 -0.9239
vn -0.5556 0.0000 -0.8315
vn -0.7071 0.0000 -0.7071
vn -0.8315 0.0000 -0.5556
vn -0.9239 0.0000 -0.3827
vn -0.9808 0.0000 -0.1951
vn -1.0000 0.0000 0.0000
vn -0.9808 0.0000 0.1951
vn -0.9239 0.0000 0.3827
vn -0.8315 0.0000 0.5556
vn -0.7071 0.0000 0.7071
vn -0.5556 0.0000 0.8315
vn -0.3827 0.0000 0.9239
vn -0.1951 0.0000 0.9808
vn 0.0000 0.0000 1.0000
vn 0.1951 0.0000 0.9808
vn 0.3827 0.0000 0.9239
vn 0.5556 0.0000 0.8315
vn 0.7071 0.0000 0.7071
vn 0.8315 0.0000 0.5556
vn 0.9239 0.0000 0.3827
vn 0.9808 0.0000 0.1951
vn 0.0000 1.0000 -0.0000
# 34 vertex normals

vt -0.0044 0.0000 -0.8862
vt -0.0120 0.0000 -0.9616
vt -0.0000 0.0000 -1.0000
vt 0.0381 0.0000 -0.9239
vt 0.7500 0.0000 1.0000
vt 0.7813 0.0000 1.0000
vt 0.7813 1.0000 1.0000
vt 0.7500 1.0000 1.0000
vt 0.8125 0.0000 1.0000
vt 0.8125 1.0000 1.0000
vt 0.8438 0.0000 1.0000
vt 0.8438 1.0000 1.0000
vt 0.8750 0.0000 1.0000
vt 0.8750 1.0000 1.0000
vt 0.9063 0.0000 1.0000
vt 0.9063 1.0000 1.0000
vt 0.9375 0.0000 1.0000
vt 0.9375 1.0000 1.0000
vt 0.9688 0.0000 1.0000
vt 0.9688 1.0000 1.0000
vt 1.0000 0.0000 1.0000
vt 1.0000 1.0000 1.0000
vt 0.0000 0.0000 1.0000
vt 0.0313 0.0000 1.0000
vt 0.0313 1.0000 1.0000
vt 0.0000 1.0000 1.0000
vt 0.0625 0.0000 1.0000
vt 0.0625 1.0000 1.0000
vt 0.0938 0.0000 1.0000
vt 0.0938 1.0000 1.0000
vt 0.1250 0.0000 1.0000
vt 0.1250 1.0000 1.0000
vt 0.1563 0.0000 1.0000
vt 0.1563 1.0000 1.0000
vt 0.1875 0.0000 1.0000
vt 0.1875 1.0000 1.0000
vt 0.2188 0.0000 1.0000
vt 0.2188 1.0000 1.0000
vt 0.2500 0.0000 1.0000
vt 0.2500 1.0000 1.0000
vt 0.2813 0.0000 1.0000
vt 0.2813 1.0000 1.0000
vt 0.3125 0.0000 1.0000
vt 0.3125 1.0000 1.0000
vt 0.3438 0.0000 1.0000
vt 0.3438 1.0000 1.0000
vt 0.3750 0.0000 1.0000
vt 0.3750 1.0000 1.0000
vt 0.4063 0.0000 1.0000
vt 0.4063 1.0000 1.0000
vt 0.4375 0.0000 1.0000
vt 0.4375 1.0000 1.0000
vt 0.4688 0.0000 1.0000
vt 0.4688 1.0000 1.0000
vt 0.5000 0.0000 1.0000
vt 0.5000 1.0000 1.0000
vt 0.5313 0.0000 1.0000
vt 0.5313 1.0000 1.0000
vt 0.5625 0.0000 1.0000
vt 0.5625 1.0000 1.0000
vt 0.5938 0.0000 1.0000
vt 0.5938 1.0000 1.0000
vt 0.6250 0.0000 1.0000
vt 0.6250 1.0000 1.0000
vt 0.6563 0.0000 1.0000
vt 0.6563 1.0000 1.0000
vt 0.6875 0.0000 1.0000
vt 0.6875 1.0000 1.0000
vt 0.7188 0.0000 1.0000
vt 0.7188 1.0000 1.0000
vt 0.0381 1.0000 -0.9239
vt -0.0044 1.0000 -0.8862
vt 0.5090 1.0000 0.0192
vt 0.0805 1.0000 -0.9616
vt 0.9709 1.0000 0.9431
vt 1.0044 1.0000 0.8862
vt 0.9774 1.0000 0.7768
vt 0.9320 1.0000 0.6375
vt 0.8991 1.0000 0.5889
vt 0.7938 1.0000 0.2917
vt 0.7064 1.0000 0.0985
vt 0.6109 1.0000 -0.0985
vt 0.6025 1.0000 -0.0910
vt 0.4112 1.0000 -0.4737
vt 0.3145 1.0000 -0.6375
vt 0.2249 1.0000 -0.7768
vt 0.2458 1.0000 -0.7176
vt 0.0313 1.0000 -1.0000
vt 0.0000 1.0000 -1.0000
vt 0.0226 1.0000 -0.7767
vt 0.0680 1.0000 -0.6375
vt 0.1009 1.0000 -0.5889
vt 0.5093 1.0000 0.3542
vt 0.2062 1.0000 -0.2917
vt 0.1459 1.0000 -0.8862
vt 0.5113 1.0000 -0.2917
vt 0.8700 1.0000 0.4737
vt 1.0120 1.0000 0.9616
vt 0.1300 1.0000 -0.4737
vt -0.0120 1.0000 -0.9616
vt 1.0044 0.0000 0.8862
vt 1.0120 0.0000 0.9616
vt 0.9709 0.0000 0.9431
vt 0.7938 0.0000 0.2917
vt 0.8700 0.0000 0.4737
vt 0.9320 0.0000 0.6375
vt 0.8991 0.0000 0.5889
vt 0.4111 0.0000 -0.4737
vt 0.5113 0.0000 -0.2917
vt 0.6109 0.0000 -0.0985
vt 0.6025 0.0000 -0.0910
vt 0.0805 0.0000 -0.9616
vt 0.1459 0.0000 -0.8862
vt 0.2249 0.0000 -0.7768
vt 0.2458 0.0000 -0.7176
vt 0.5090 0.0000 0.0192
vt 0.2062 0.0000 -0.2917
vt 0.1300 0.0000 -0.4737
vt 0.0680 0.0000 -0.6375
vt 0.1009 0.0000 -0.5889
vt 0.5093 0.0000 0.3542
vt 0.7063 0.0000 0.0985
vt 0.9774 0.0000 0.7768
vt 0.2936 0.0000 -0.0985
vt 0.0226 0.0000 -0.7768
vt 0.0312 0.0000 -1.0000
vt 0.3145 0.0000 -0.6375
# 127 texture coords

o Cylinder001
g Cylinder001
s 1
f 1/1/1 2/2/1 3/3/1 
f 3/3/1 4/4/1 1/1/1 
s 8
f 5/5/2 6/6/3 7/7/3 
f 7/7/3 8/8/2 5/5/2 
f 6/6/3 9/9/4 10/10/4 
f 10/10/4 7/7/3 6/6/3 
f 9/9/4 11/11/5 12/12/5 
f 12/12/5 10/10/4 9/9/4 
f 11/11/5 13/13/6 14/14/6 
f 14/14/6 12/12/5 11/11/5 
f 13/13/6 15/15/7 16/16/7 
f 16/16/7 14/14/6 13/13/6 
f 15/15/7 17/17/8 18/18/8 
f 18/18/8 16/16/7 15/15/7 
f 17/17/8 19/19/9 20/20/9 
f 20/20/9 18/18/8 17/17/8 
f 19/19/9 21/21/10 22/22/10 
f 22/22/10 20/20/9 19/19/9 
f 21/23/10 23/24/11 24/25/11 
f 24/25/11 22/26/10 21/23/10 
f 23/24/11 25/27/12 26/28/12 
f 26/28/12 24/25/11 23/24/11 
f 25/27/12 27/29/13 28/30/13 
f 28/30/13 26/28/12 25/27/12 
f 27/29/13 29/31/14 30/32/14 
f 30/32/14 28/30/13 27/29/13 
f 29/31/14 31/33/15 32/34/15 
f 32/34/15 30/32/14 29/31/14 
f 31/33/15 33/35/16 34/36/16 
f 34/36/16 32/34/15 31/33/15 
f 33/35/16 35/37/17 36/38/17 
f 36/38/17 34/36/16 33/35/16 
f 35/37/17 37/39/18 38/40/18 
f 38/40/18 36/38/17 35/37/17 
f 37/39/18 39/41/19 40/42/19 
f 40/42/19 38/40/18 37/39/18 
f 39/41/19 41/43/20 42/44/20 
f 42/44/20 40/42/19 39/41/19 
f 41/43/20 43/45/21 44/46/21 
f 44/46/21 42/44/20 41/43/20 
f 43/45/21 45/47/22 46/48/22 
f 46/48/22 44/46/21 43/45/21 
f 45/47/22 47/49/23 48/50/23 
f 48/50/23 46/48/22 45/47/22 
f 47/49/23 49/51/24 50/52/24 
f 50/52/24 48/50/23 47/49/23 
f 49/51/24 51/53/25 52/54/25 
f 52/54/25 50/52/24 49/51/24 
f 51/53/25 3/55/26 53/56/26 
f 53/56/26 52/54/25 51/53/25 
f 3/55/26 2/57/27 54/58/27 
f 54/58/27 53/56/26 3/55/26 
f 2/57/27 1/59/28 55/60/28 
f 55/60/28 54/58/27 2/57/27 
f 1/59/28 56/61/29 57/62/29 
f 57/62/29 55/60/28 1/59/28 
f 56/61/29 58/63/30 59/64/30 
f 59/64/30 57/62/29 56/61/29 
f 58/63/30 60/65/31 61/66/31 
f 61/66/31 59/64/30 58/63/30 
f 60/65/31 62/67/32 63/68/32 
f 63/68/32 61/66/31 60/65/31 
f 62/67/32 64/69/33 65/70/33 
f 65/70/33 63/68/32 62/67/32 
f 64/69/33 5/5/2 8/8/2 
f 8/8/2 65/70/33 64/69/33 
s 1
f 66/71/34 55/72/34 67/73/34 
f 67/73/34 50/74/34 66/71/34 
f 10/10/34 12/12/34 14/14/34 
f 14/14/34 68/14/34 10/10/34 
f 18/18/34 20/20/34 22/22/34 
f 22/22/34 69/75/34 18/18/34 
f 26/76/34 28/77/34 30/78/34 
f 30/78/34 70/79/34 26/76/34 
f 34/80/34 36/81/34 38/82/34 
f 38/82/34 71/83/34 34/80/34 
f 42/84/34 44/85/34 46/86/34 
f 46/86/34 72/87/34 42/84/34 
f 50/74/34 52/88/34 53/89/34 
f 53/89/34 66/71/34 50/74/34 
f 55/72/34 57/90/34 59/91/34 
f 59/91/34 73/92/34 55/72/34 
f 8/8/34 74/93/34 63/94/34 
f 63/94/34 65/70/34 8/8/34 
f 46/86/34 48/95/34 50/74/34 
f 50/74/34 72/87/34 46/86/34 
f 38/82/34 40/96/34 42/84/34 
f 42/84/34 71/83/34 38/82/34 
f 30/78/34 32/97/34 34/80/34 
f 34/80/34 70/79/34 30/78/34 
f 22/22/34 24/98/34 26/76/34 
f 26/76/34 69/75/34 22/22/34 
f 14/14/34 16/16/34 18/18/34 
f 18/18/34 68/14/34 14/14/34 
f 8/8/34 7/7/34 10/10/34 
f 10/10/34 74/93/34 8/8/34 
f 59/91/34 61/99/34 63/94/34 
f 63/94/34 73/92/34 59/91/34 
f 53/89/34 54/100/34 55/72/34 
f 55/72/34 66/71/34 53/89/34 
f 67/73/34 42/84/34 72/87/34 
f 72/87/34 50/74/34 67/73/34 
f 67/73/34 10/10/34 68/14/34 
f 68/14/34 18/18/34 67/73/34 
f 70/79/34 34/80/34 67/73/34 
f 67/73/34 26/76/34 70/79/34 
f 25/101/1 23/102/1 21/21/1 
f 21/21/1 75/103/1 25/101/1 
f 33/104/1 31/105/1 29/106/1 
f 29/106/1 76/107/1 33/104/1 
f 41/108/1 39/109/1 37/110/1 
f 37/110/1 77/111/1 41/108/1 
f 49/112/1 47/113/1 45/114/1 
f 45/114/1 78/115/1 49/112/1 
f 76/107/1 25/101/1 79/116/1 
f 79/116/1 33/104/1 76/107/1 
f 62/117/1 60/118/1 58/119/1 
f 58/119/1 80/120/1 62/117/1 
f 9/9/1 6/6/1 5/5/1 
f 5/5/1 81/121/1 9/9/1 
f 17/17/1 15/15/1 13/13/1 
f 13/13/1 82/13/1 17/17/1 
f 81/121/1 62/117/1 79/116/1 
f 79/116/1 9/9/1 81/121/1 
f 4/4/1 49/112/1 79/116/1 
f 79/116/1 1/1/1 4/4/1 
f 79/116/1 49/112/1 78/115/1 
f 78/115/1 41/108/1 79/116/1 
f 37/110/1 35/122/1 33/104/1 
f 33/104/1 77/111/1 37/110/1 
f 29/106/1 27/123/1 25/101/1 
f 25/101/1 76/107/1 29/106/1 
f 21/21/1 19/19/1 17/17/1 
f 17/17/1 75/103/1 21/21/1 
f 13/13/1 11/11/1 9/9/1 
f 9/9/1 82/13/1 13/13/1 
f 5/5/1 64/124/1 62/117/1 
f 62/117/1 81/121/1 5/5/1 
f 58/119/1 56/125/1 1/1/1 
f 1/1/1 80/120/1 58/119/1 
f 3/3/1 51/126/1 49/112/1 
f 49/112/1 4/4/1 3/3/1 
f 45/114/1 43/127/1 41/108/1 
f 41/108/1 78/115/1 45/114/1 
f 67/73/34 55/72/34 73/92/34 
f 73/92/34 63/94/34 67/73/34 
f 69/75/34 26/76/34 67/73/34 
f 67/73/34 18/18/34 69/75/34 
f 74/93/34 10/10/34 67/73/34 
f 67/73/34 63/94/34 74/93/34 
f 71/83/34 42/84/34 67/73/34 
f 67/73/34 34/80/34 71/83/34 
f 75/103/1 17/17/1 79/116/1 
f 79/116/1 25/101/1 75/103/1 
f 80/120/1 1/1/1 79/116/1 
f 79/116/1 62/117/1 80/120/1 
f 79/116/1 41/108/1 77/111/1 
f 77/111/1 33/104/1 79/116/1 
f 82/13/1 9/9/1 79/116/1 
f 79/116/1 17/17/1 82/13/1 
# 160 faces

